# xmcd
#
# Track frame offsets: 
#        150
#        45245
#        51569
#        59256
#        69578
#        81309
#        92182
#        101229
#        109684
#        112805
#        118064
#
# Disc length: 1713 seconds
#
# Revision: 0
# Processed by: cddbd v1.5.2PL0 Copyright (c) Steve Scherf et al.
# Submitted via: ExactAudioCopy v0.95b3
#
DISCID=9606af0b
DTITLE=The Beatles  - Way Beyond Compare - Episode 26 Speech and studio 
DTITLE=+ Interview (22-30July 1963)  FLAC
DYEAR=1900
DGENRE=
TTITLE0=Bible Readings
TTITLE1=Out In The Street
TTITLE2=Piano_Drum Instrumental
TTITLE3=Please Mr Postman - monitor mix of take 3
TTITLE4=Please Mr Postman - monitor mix of take 9
TTITLE5=It Won't Be Long - monitor mix of take 7
TTITLE6=It Won't Be Long - monitor mix of take 10
TTITLE7=Hello Little Girl - monitor mix of unknown take
TTITLE8=Hello Little Girl - monitor mix of take 15
TTITLE9=Hello Little Girl - monitor mix of take 15
TTITLE10=Radio Interview, Non Stop Pop, BBC Phil Tate
EXTD=
EXTT0=
EXTT1=
EXTT2=
EXTT3=
EXTT4=
EXTT5=
EXTT6=
EXTT7=
EXTT8=
EXTT9=
EXTT10=
PLAYORDER=
